<!--
  * Copyright (c) 2024. Devtron Inc.
 * Copyright (c) 2025. Axiom Studio
  -
  - Licensed under the Apache License, Version 2.0 (the "License");
  - you may not use this file except in compliance with the License.
  - You may obtain a copy of the License at
  -
  -     http://www.apache.org/licenses/LICENSE-2.0
  -
  - Unless required by applicable law or agreed to in writing, software
  - distributed under the License is distributed on an "AS IS" BASIS,
  - WITHOUT WARRANTIES OR CONDITIONS OF ANY KIND, either express or implied.
  - See the License for the specific language governing permissions and
  - limitations under the License.
  -->

<svg width="50" height="50" viewBox="10.5 10 80 80" xmlns="http://www.w3.org/2000/svg">
    <defs>
        <linearGradient id="vibeflow-gradient" gradientUnits="userSpaceOnUse" x1="11.2" y1="0" x2="89.8" y2="0">
            <stop stop-color="#00ff8f" offset="0"/>
            <stop stop-color="#00a1ff" offset="1"/>
        </linearGradient>
    </defs>
    <g fill="url(#vibeflow-gradient)">
        <circle cx="29.5" cy="20.9" r="4.6"/>
        <circle cx="28.3" cy="58" r="1.3"/>
        <circle cx="36.2" cy="29.4" r="1.9"/>
        <circle cx="21.1" cy="44" r="4.6"/>
        <circle cx="14.5" cy="35.9" r="1.9"/>
        <circle cx="12.5" cy="42" r="1.3"/>
        <circle cx="19.9" cy="28" r="3.2"/>
        <circle cx="58.8" cy="12.3" r="1.3"/>
        <circle cx="18.2" cy="57.5" r="5.6"/>
        <circle cx="79.9" cy="29.3" r="4.6"/>
        <circle cx="72.8" cy="65.5" r="3.2"/>
        <circle cx="72.8" cy="19.7" r="3.2"/>
        <circle cx="65.7" cy="28" r="3.2"/>
        <circle cx="82.8" cy="42.5" r="5.6"/>
        <circle cx="72.7" cy="42" r="1.3"/>
        <circle cx="64.8" cy="14.2" r="1.9"/>
        <circle cx="70.8" cy="35.9" r="1.9"/>
        <circle cx="28.2" cy="34.5" r="3.2"/>
        <circle cx="64.8" cy="70.6" r="1.9"/>
        <circle cx="58.3" cy="82" r="5.6"/>
        <circle cx="71.5" cy="79.1" r="4.6"/>
        <circle cx="58.8" cy="72.5" r="1.3"/>
        <circle cx="88.5" cy="58" r="1.3"/>
        <circle cx="86.5" cy="64.1" r="1.9"/>
        <circle cx="56.2" cy="20.9" r="4.6"/>
        <circle cx="79.9" cy="56" r="4.6"/>
        <circle cx="21.1" cy="70.7" r="4.6"/>
        <circle cx="81.1" cy="72" r="3.2"/>
        <circle cx="30.2" cy="64.1" r="1.9"/>
        <circle cx="35.3" cy="72" r="3.2"/>
        <circle cx="36.2" cy="85.8" r="1.9"/>
        <circle cx="28.2" cy="80.3" r="3.2"/>
        <circle cx="42.3" cy="27.5" r="1.3"/>
        <circle cx="42.7" cy="17.9" r="5.6"/>
        <circle cx="42.2" cy="87.7" r="1.3"/>
        <circle cx="44.8" cy="79.1" r="4.6"/>
    </g>
</svg>
